#!OML:ASF H:\Terrain\Patient Classification 1\Terrain2\Thursday\justin.ASF
:FULLY-SPECIFIED
:DEGREES
1460
root -1.69526 23.6912 0.752893 183.831 33.8868 -172.093
lowerback 7.4322 1.14739 3.55386
upperback 1.72139 2.1133 3.73746
thorax -2.40534 1.1284 1.66393
lowerneck -12.2101 -6.22174 -9.76914
upperneck 39.5101 -5.31825 5.90979
head 16.9003 -1.71476 3.81041
rclavicle -9.0447e-015 -1.27222e-014
rhumerus -28.4691 -8.4276 -75.6225
rradius 29.7202
rwrist -10.3354
rhand -18.7782 13.6721
rfingers 7.12502
rthumb 7.5192 -16.1742
lclavicle -9.0447e-015 -1.27222e-014
lhumerus -39.6541 10.9057 85.686
lradius 23.4748
lwrist 0.480149
lhand -15.713 19.1972
lfingers 7.12502
lthumb 10.477 -311.084
rfemur -7.89119 9.53642 24.4971
rtibia 30.0026
rfoot -16.5933 22.301
rtoes 25.892
lfemur -12.4747 -13.4686 -7.0529
ltibia 29.4537
lfoot -0.204249 -33.2573
ltoes 38.1932
1461
root -1.72821 23.6925 0.718046 184.196 34.6081 -171.886
lowerback 7.39456 1.09045 3.70009
upperback 1.67097 2.03867 3.64639
thorax -2.42769 1.08641 1.49517
lowerneck -12.1383 -6.37492 -9.75586
upperneck 39.5921 -5.67218 6.1399
head 16.9793 -1.8343 3.8541
rclavicle 3.57812e-014 1.31198e-014
rhumerus -28.4474 -8.2889 -75.8623
rradius 30.534
rwrist -10.9364
rhand -19.1554 13.6985
rfingers 7.12502
rthumb 7.15514 -16.1606
lclavicle 3.57812e-014 1.31198e-014
lhumerus -39.7673 10.7093 85.4638
lradius 23.1055
lwrist -0.0267424
lhand -15.7851 19.2019
lfingers 7.12502
lthumb 10.4074 -311.076
rfemur -8.25243 9.87317 24.3928
rtibia 30.1346
rfoot -16.3615 22.866
rtoes 26.9407
lfemur -12.2917 -12.5658 -7.07685
ltibia 29.0706
lfoot -1.51985 -32.8491
ltoes 35.6258
1462
root -1.75935 23.6924 0.678259 184.145 35.4764 -172.151
lowerback 7.4013 1.07743 3.45955
upperback 1.7027 1.97918 3.42278
thorax -2.39799 1.0514 1.4041
lowerneck -11.9151 -6.43883 -9.68498
upperneck 39.4164 -5.97975 6.44096
head 16.8706 -1.92703 3.91186
rclavicle -1.33186e-014 -2.78299e-015
rhumerus -28.3133 -8.38842 -76.1807
rradius 31.1628
rwrist -11.6391
rhand -19.673 13.5773
rfingers 7.12502
rthumb 6.65548 -16.2981
lclavicle -1.33186e-014 -2.78299e-015
lhumerus -39.5931 10.2551 85.3343
lradius 22.5354
lwrist -0.101712
lhand -16.7458 18.3474
lfingers 7.12502
lthumb 9.48063 -311.886
rfemur -8.37691 10.1086 23.8868
rtibia 30.1873
rfoot -16.2748 23.3541
rtoes 26.925
lfemur -11.8918 -12.0122 -7.61225
ltibia 28.7487
lfoot -3.12301 -32.02
ltoes 32.9331
1463
root -1.79073 23.6929 0.64376 183.995 36.3238 -172.75
lowerback 7.26694 0.893458 2.65741
upperback 1.76865 1.64813 3.34336
thorax -2.27404 0.886435 1.80501
lowerneck -11.8563 -6.3079 -9.82278
upperneck 39.2774 -5.86972 6.59505
head 16.7782 -1.90569 4.01289
rclavicle 2.55438e-014 -2.18663e-014
rhumerus -27.8295 -8.09458 -76.4635
rradius 31.6931
rwrist -11.8842
rhand -20.2489 13.5703
rfingers 7.12502
rthumb 6.09956 -16.3219
lclavicle 2.55438e-014 -2.18663e-014
lhumerus -39.4554 10.8559 85.0012
lradius 21.9996
lwrist -0.724925
lhand -16.982 17.6718
lfingers 7.12502
lthumb 9.2527 -312.551
rfemur -8.62981 10.2786 23.0671
rtibia 30.2091
rfoot -16.1365 23.9229
rtoes 26.946
lfemur -11.6315 -11.8101 -8.39534
ltibia 28.4434
lfoot -3.99856 -31.1027
ltoes 31.9999
1464
root -1.82172 23.6998 0.608239 183.94 37.0111 -173.1
lowerback 7.1405 0.600063 2.08448
upperback 1.85973 1.20138 3.34459
thorax -2.11484 0.665245 2.17079
lowerneck -12.0248 -6.18993 -9.90529
upperneck 39.4457 -5.63585 6.47164
head 16.8827 -1.8519 4.01757
rclavicle -4.33848e-014 -2.0276e-014
rhumerus -27.2721 -7.58124 -76.7607
rradius 32.1969
rwrist -12.141
rhand -20.795 13.4822
rfingers 7.12502
rthumb 5.57224 -16.4245
lclavicle -4.33848e-014 -2.0276e-014
lhumerus -39.5745 11.7005 84.5535
lradius 21.795
lwrist -1.59649
lhand -15.6677 18.5645
lfingers 7.12502
lthumb 10.5207 -311.719
rfemur -8.82691 10.3641 22.4887
rtibia 30.2344
rfoot -16.0143 24.4163
rtoes 27.2734
lfemur -11.3617 -11.7603 -8.95135
ltibia 28.1698
lfoot -4.35837 -30.4776
ltoes 32.5249
1465
root -1.85524 23.7128 0.56881 184.011 37.626 -173.003
lowerback 7.20068 0.355966 2.01894
upperback 1.89117 0.877698 3.40566
thorax -2.11017 0.50547 2.29942
lowerneck -11.7531 -6.15419 -10.1717
upperneck 39.4481 -5.59041 6.59208
head 16.8294 -1.86878 4.12804
rclavicle -3.85642e-014 6.36111e-015
rhumerus -27.0569 -7.40481 -76.8112
rradius 32.6396
rwrist -12.4224
rhand -20.9605 13.5216
rfingers 7.12502
rthumb 5.41251 -16.3893
lclavicle -3.85642e-014 6.36111e-015
lhumerus -39.7039 11.9158 84.3704
lradius 21.5826
lwrist -2.34452
lhand -14.1309 19.7091
lfingers 7.12502
lthumb 12.0029 -310.655
rfemur -8.87385 10.556 22.3587
rtibia 30.2798
rfoot -15.9641 24.5644
rtoes 27.5081
lfemur -10.9754 -11.698 -9.16883
ltibia 27.9322
lfoot -4.38064 -30.0928
ltoes 33.5792
1466
root -1.89419 23.7272 0.532742 184.147 38.31 -172.865
lowerback 7.31068 0.20257 2.0513
upperback 1.90917 0.681994 3.42155
thorax -2.14756 0.408384 2.31481
lowerneck -11.5819 -6.19969 -10.3204
upperneck 39.4217 -5.70234 6.69296
head 16.7988 -1.93725 4.17727
rclavicle -3.3197e-014 1.59028e-015
rhumerus -26.9762 -7.55414 -76.7907
rradius 33.1058
rwrist -12.6618
rhand -21.0841 13.7601
rfingers 7.12502
rthumb 5.29314 -16.1538
lclavicle -3.3197e-014 1.59028e-015
lhumerus -39.6371 12.0197 84.2138
lradius 21.2027
lwrist -3.15412
lhand -13.1476 20.4489
lfingers 7.12502
lthumb 12.9509 -309.973
rfemur -9.05072 10.9428 22.2076
rtibia 30.3795
rfoot -15.5021 24.9117
rtoes 28.5991
lfemur -10.681 -11.4695 -9.37141
ltibia 27.6732
lfoot -4.52819 -29.6355
ltoes 33.5888
1467
root -1.93184 23.7393 0.499571 184.2 39.014 -173.045
lowerback 7.2547 0.105182 1.85594
upperback 1.97411 0.523439 3.30441
thorax -2.04561 0.32723 2.31783
lowerneck -11.7796 -6.29448 -10.0342
upperneck 39.5165 -5.88058 6.49508
head 16.8986 -2.00647 4.00278
rclavicle -1.06002e-013 3.45885e-014
rhumerus -26.8128 -7.74093 -76.9691
rradius 33.6677
rwrist -13.1791
rhand -21.4088 13.8829
rfingers 7.12502
rthumb 4.97961 -16.0386
lclavicle -1.06002e-013 3.45885e-014
lhumerus -39.4722 12.1193 83.9296
lradius 20.8754
lwrist -3.97163
lhand -12.297 20.759
lfingers 7.12502
lthumb 13.7708 -309.717
rfemur -9.37431 11.1908 21.7357
rtibia 30.5216
rfoot -15.2938 25.4314
rtoes 28.6748
lfemur -10.5152 -11.1686 -9.83354
ltibia 27.4014
lfoot -5.27197 -29.0291
ltoes 31.9974
1468
root -1.96218 23.7494 0.469745 183.853 39.6751 -173.813
lowerback 7.19129 0.0205181 1.07721
upperback 2.02011 0.331599 3.13705
thorax -1.9601 0.227099 2.60013
lowerneck -11.729 -6.3721 -10.0666
upperneck 39.4654 -6.08717 6.62178
head 16.8913 -2.09453 4.0233
rclavicle -2.56929e-014 3.29983e-014
rhumerus -26.7243 -7.79471 -77.0948
rradius 34.2691
rwrist -13.672
rhand -21.7066 13.883
rfingers 7.12502
rthumb 4.69209 -16.045
lclavicle -2.56929e-014 3.29983e-014
lhumerus -39.3744 12.2405 83.6448
lradius 20.6298
lwrist -4.77051
lhand -11.5415 20.6408
lfingers 7.12502
lthumb 14.4988 -309.886
rfemur -9.63866 11.3334 20.816
rtibia 30.6483
rfoot -15.4456 25.7725
rtoes 28.0676
lfemur -10.342 -10.9932 -10.761
ltibia 27.1696
lfoot -5.86447 -28.3794
ltoes 31.2157
